fd_6_states
version=1
nRows=15
nColumns=17
inDegrees=yes

# SIMM Motion File Header:
name fd_6_states
datacolumns 17
datarows 15
otherdata 1
range 0.813579 0.830303
endheader
time	/jointset/r_shoulder/r_shoulder_elev/value	/jointset/r_shoulder/r_shoulder_elev/speed	/jointset/r_elbow/r_elbow_flex/value	/jointset/r_elbow/r_elbow_flex/speed	/forceset/TRIlong/activation	/forceset/TRIlong/fiber_length	/forceset/TRIlat/activation	/forceset/TRIlat/fiber_length	/forceset/TRImed/activation	/forceset/TRImed/fiber_length	/forceset/BIClong/activation	/forceset/BIClong/fiber_length	/forceset/BICshort/activation	/forceset/BICshort/fiber_length	/forceset/BRA/activation	/forceset/BRA/fiber_length
      0.813579	     -7.695521	     27.873593	    245.736131	    159.394025	      0.025717	      0.160741	      0.158786	      0.099162	      0.153929	      0.094203	      0.078597	      0.106148	      0.025038	      0.104268	      0.024492	      0.052342
      0.814748	     -7.662452	     28.688905	    245.922484	    159.357343	      0.025628	      0.160704	      0.156432	      0.099112	      0.151564	      0.094153	      0.077795	      0.106306	      0.024960	      0.104417	      0.024422	      0.052420
      0.815917	     -7.628436	     29.491491	    246.108805	    159.344050	      0.025540	      0.160667	      0.154138	      0.099062	      0.149259	      0.094102	      0.077009	      0.106464	      0.024882	      0.104565	      0.024354	      0.052489
      0.817087	     -7.593489	     30.283644	    246.295119	    159.341409	      0.025453	      0.160631	      0.151903	      0.099012	      0.147013	      0.094052	      0.076238	      0.106621	      0.024806	      0.104713	      0.024286	      0.052566
      0.818256	     -7.557622	     31.063671	    246.481441	    159.359182	      0.025368	      0.160595	      0.149725	      0.098962	      0.144824	      0.094002	      0.075482	      0.106777	      0.024731	      0.104860	      0.024219	      0.052637
      0.819425	     -7.520849	     31.833134	    246.667791	    159.388843	      0.025285	      0.160559	      0.147602	      0.098912	      0.142690	      0.093951	      0.074741	      0.106933	      0.024658	      0.105007	      0.024154	      0.052712
      0.820833	     -7.475390	     32.743752	    246.892225	    159.450844	      0.025194	      0.160517	      0.144986	      0.098851	      0.140088	      0.093890	      0.073822	      0.107120	      0.024570	      0.105183	      0.024076	      0.052798
      0.821906	     -7.439881	     33.427421	    247.063382	    159.509523	      0.025148	      0.160486	      0.142732	      0.098805	      0.137910	      0.093843	      0.073028	      0.107264	      0.024505	      0.105317	      0.024018	      0.052870
      0.822980	     -7.403644	     34.099293	    247.234614	    159.590633	      0.025103	      0.160454	      0.140522	      0.098759	      0.135774	      0.093797	      0.072245	      0.107408	      0.024441	      0.105451	      0.023960	      0.052935
      0.824053	     -7.366692	     34.760709	    247.405940	    159.685780	      0.025058	      0.160423	      0.138364	      0.098713	      0.133689	      0.093750	      0.071476	      0.107552	      0.024377	      0.105585	      0.023904	      0.053004
      0.825588	     -7.312619	     35.686825	    247.651184	    159.855418	      0.024996	      0.160379	      0.135363	      0.098647	      0.130788	      0.093684	      0.070401	      0.107757	      0.024288	      0.105776	      0.023824	      0.053099
      0.826654	     -7.274239	     36.317646	    247.821665	    159.988767	      0.024953	      0.160349	      0.133338	      0.098602	      0.128829	      0.093638	      0.069670	      0.107900	      0.024227	      0.105908	      0.023770	      0.053170
      0.827720	     -7.235192	     36.936880	    247.992298	    160.143025	      0.024911	      0.160319	      0.131358	      0.098556	      0.126914	      0.093591	      0.068952	      0.108041	      0.024167	      0.106041	      0.023717	      0.053236
      0.828786	     -7.195491	     37.546128	    248.163103	    160.309683	      0.024870	      0.160290	      0.129423	      0.098510	      0.125042	      0.093545	      0.068247	      0.108183	      0.024108	      0.106173	      0.023664	      0.053305
      0.830303	     -7.137881	     38.394362	    248.406513	    160.577339	      0.024810	      0.160248	      0.126738	      0.098444	      0.122445	      0.093478	      0.067259	      0.108383	      0.024025	      0.106361	      0.023590	      0.053400
